<svg width="24" height="24" viewBox="0 0 24 24" fill="none" xmlns="http://www.w3.org/2000/svg">
<path d="M11.0302 8.53C11.1039 8.46134 11.163 8.37854 11.204 8.28654C11.2449 8.19454 11.267 8.09523 11.2688 7.99452C11.2705 7.89382 11.252 7.79379 11.2143 7.7004C11.1766 7.60701 11.1204 7.52218 11.0492 7.45096C10.978 7.37974 10.8932 7.3236 10.7998 7.28588C10.7064 7.24816 10.6064 7.22963 10.5056 7.23141C10.4049 7.23319 10.3056 7.25523 10.2136 7.29622C10.1216 7.33721 10.0388 7.39631 9.97017 7.47L5.97017 11.47C5.90039 11.5395 5.84502 11.6221 5.80723 11.713C5.76945 11.804 5.75 11.9015 5.75 12C5.75 12.0985 5.76945 12.196 5.80723 12.287C5.84502 12.3779 5.90039 12.4605 5.97017 12.53L9.97017 16.53C10.0388 16.6037 10.1216 16.6628 10.2136 16.7038C10.3056 16.7448 10.4049 16.7668 10.5056 16.7686C10.6064 16.7704 10.7064 16.7518 10.7998 16.7141C10.8932 16.6764 10.978 16.6203 11.0492 16.549C11.1204 16.4778 11.1766 16.393 11.2143 16.2996C11.252 16.2062 11.2705 16.1062 11.2688 16.0055C11.267 15.9048 11.2449 15.8055 11.204 15.7135C11.163 15.6215 11.1039 15.5387 11.0302 15.47L8.31017 12.75H18.0002C18.1991 12.75 18.3898 12.671 18.5305 12.5303C18.6712 12.3897 18.7502 12.1989 18.7502 12C18.7502 11.8011 18.6712 11.6103 18.5305 11.4697C18.3898 11.329 18.1991 11.25 18.0002 11.25H8.31017L11.0302 8.53Z" fill="#262626"/>
</svg>
