<svg width="30" height="31" viewBox="0 0 30 31" fill="none" xmlns="http://www.w3.org/2000/svg">
<path d="M23.7504 18.0002C23.751 18.2923 23.6493 18.5754 23.4629 18.8002C23.358 18.9268 23.2291 19.0314 23.0837 19.1081C22.9382 19.1848 22.7791 19.2321 22.6154 19.2472C22.4517 19.2623 22.2866 19.2449 22.1296 19.1961C21.9726 19.1473 21.8267 19.068 21.7004 18.9627L15.0004 13.3627L8.28791 18.7627C8.16005 18.8666 8.01293 18.9441 7.85501 18.9909C7.69709 19.0377 7.53147 19.0528 7.36769 19.0354C7.2039 19.018 7.04517 18.9683 6.90063 18.8894C6.75608 18.8104 6.62857 18.7036 6.52541 18.5752C6.41162 18.4459 6.32578 18.2945 6.2733 18.1304C6.22081 17.9663 6.20281 17.7931 6.22041 17.6218C6.23802 17.4504 6.29086 17.2845 6.37561 17.1346C6.46036 16.9846 6.5752 16.8537 6.71291 16.7502L14.2129 10.7127C14.4366 10.5289 14.7171 10.4284 15.0067 10.4284C15.2962 10.4284 15.5767 10.5289 15.8004 10.7127L23.3004 16.9627C23.4517 17.0881 23.5713 17.2474 23.6495 17.4277C23.7276 17.608 23.7622 17.8041 23.7504 18.0002Z" fill="white"/>
</svg>
