<svg width="36" height="36" viewBox="0 0 36 36" fill="none" xmlns="http://www.w3.org/2000/svg">
<path d="M36 27C36 28.0609 35.5786 29.0783 34.8284 29.8284C34.0783 30.5786 33.0609 31 32 31H4C2.93913 31 1.92172 30.5786 1.17157 29.8284C0.421427 29.0783 0 28.0609 0 27V9C0 7.93913 0.421427 6.92172 1.17157 6.17157C1.92172 5.42143 2.93913 5 4 5H32C33.0609 5 34.0783 5.42143 34.8284 6.17157C35.5786 6.92172 36 7.93913 36 9V27Z" fill="#29AE66"/>
<path d="M4 5H11V31H4V5Z" fill="#CA3745"/>
<path d="M4 8.312L4.805 9.117L4.586 9.336L4.906 9.656L5.117 9.445L5.781 10.109L5.125 10.766L4.852 10.492L4.562 10.781L4.805 11.023L4 11.734V11.359L4.441 10.941L4.203 10.75L4.811 10.143L5.162 10.447L5.49 10.119L5.139 9.768L4.893 10.014L4.252 9.373L4.492 9.133L4 8.688V8.312ZM4 12.938L4.805 13.742L4.586 13.961L4.906 14.281L5.117 14.07L5.781 14.734L5.125 15.391L4.852 15.117L4.562 15.406L4.805 15.648L4 16.359V15.984L4.441 15.566L4.203 15.375L4.811 14.768L5.162 15.072L5.49 14.744L5.139 14.393L4.893 14.639L4.252 13.998L4.492 13.758L4 13.312V12.938ZM4 17.656L4.805 18.461L4.586 18.68L4.906 19L5.117 18.789L5.781 19.453L5.125 20.109L4.852 19.836L4.562 20.125L4.805 20.367L4 21.078V20.703L4.441 20.285L4.203 20.094L4.811 19.486L5.162 19.791L5.49 19.463L5.139 19.111L4.893 19.357L4.252 18.717L4.492 18.477L4 18.031V17.656ZM4 22.312L4.805 23.117L4.586 23.336L4.906 23.656L5.117 23.445L5.781 24.109L5.125 24.766L4.852 24.492L4.562 24.781L4.805 25.023L4 25.734V25.359L4.441 24.941L4.203 24.75L4.811 24.143L5.162 24.447L5.49 24.119L5.139 23.768L4.893 24.014L4.252 23.373L4.492 23.133L4 22.688V22.312ZM11 8.312L10.195 9.117L10.414 9.336L10.094 9.656L9.883 9.445L9.219 10.109L9.875 10.766L10.148 10.492L10.438 10.781L10.195 11.023L11 11.734V11.359L10.559 10.941L10.797 10.75L10.189 10.143L9.838 10.447L9.51 10.119L9.861 9.768L10.107 10.014L10.748 9.373L10.508 9.133L11 8.688V8.312ZM4.562 5.688L4.852 5.398L5.125 5.672L5.781 5.016L5.766 5H5.465L5.49 5.025L5.162 5.354L4.811 5.049L4.203 5.656L4.441 5.848L4 6.266V6.641L4.805 5.93L4.562 5.688ZM10.797 5.656L10.189 5.049L9.838 5.354L9.51 5.025L9.535 5H9.234L9.219 5.016L9.875 5.672L10.148 5.398L10.438 5.688L10.195 5.93L11 6.641V6.266L10.559 5.848L10.797 5.656ZM11 12.938L10.195 13.742L10.414 13.961L10.094 14.281L9.883 14.07L9.219 14.734L9.875 15.391L10.148 15.117L10.438 15.406L10.195 15.648L11 16.359V15.984L10.559 15.566L10.797 15.375L10.189 14.768L9.838 15.072L9.51 14.744L9.861 14.393L10.107 14.639L10.748 13.998L10.508 13.758L11 13.312V12.938ZM11 17.656L10.195 18.461L10.414 18.68L10.094 19L9.883 18.789L9.219 19.453L9.875 20.109L10.148 19.836L10.438 20.125L10.195 20.367L11 21.078V20.703L10.559 20.285L10.797 20.094L10.189 19.486L9.838 19.791L9.51 19.463L9.861 19.111L10.107 19.357L10.748 18.717L10.508 18.477L11 18.031V17.656ZM11 22.312L10.195 23.117L10.414 23.336L10.094 23.656L9.883 23.445L9.219 24.109L9.875 24.766L10.148 24.492L10.438 24.781L10.195 25.023L11 25.734V25.359L10.559 24.941L10.797 24.75L10.189 24.143L9.838 24.447L9.51 24.119L9.861 23.768L10.107 24.014L10.748 23.373L10.508 23.133L11 22.688V22.312Z" fill="#FAAE29"/>
<path d="M10.021 6.93795V6.54195L9.43799 6.18795H8.99999L8.29199 5.81995H6.70799L5.99999 6.18795H5.56199L4.97899 6.54195V6.93795L4.43799 7.27095V8.18795L4.97899 8.52095V8.91695L5.56199 9.27095H5.99999L6.70799 9.63895H8.29199L8.99999 9.27095H9.43799L10.021 8.91695V8.52095L10.562 8.18795V7.27095L10.021 6.93795Z" fill="#29AE66"/>
<path d="M4.92822 7.728V7.337L5.39022 7.052V6.715L5.88822 6.412H6.26222L6.86622 6.099H7.54222V7.728H4.92822Z" fill="#FAAE29"/>
<path d="M4.88721 7.72895V8.12095L5.34921 8.40495V8.74295L5.84721 9.04495H6.22021L6.82521 9.35795H7.50021V7.72895H4.88721ZM10.1132 7.72895V7.33795L9.65121 7.05395V6.71595L9.15321 6.41395H8.78021L8.17521 6.10095H7.50021V7.72895H10.1132Z" fill="white"/>
<path d="M10.1132 7.729V8.121L9.65122 8.405V8.743L9.15322 9.045H8.78022L8.17522 9.358H7.50022V7.729H10.1132ZM4.92822 11.562H5.60422V12.291H4.92822V11.562ZM5.60422 11.458H6.28022V12.187H5.60422V11.458ZM6.28122 11.198H6.95722V11.927H6.28122V11.198ZM9.41622 11.562H10.0922V12.291H9.41622V11.562ZM8.73922 11.458H9.41522V12.187H8.73922V11.458ZM8.06222 11.198H8.73822V11.927H8.06222V11.198Z" fill="#FAAE29"/>
<path d="M6.95822 10.833H8.06322V11.734H6.95822V10.833ZM4.92822 12.484H5.60422V13.213H4.92822V12.484ZM5.60422 12.588H6.28022V13.317H5.60422V12.588ZM6.28122 12.849H6.95722V13.578H6.28122V12.849ZM9.41622 12.484H10.0922V13.213H9.41622V12.484ZM8.73922 12.588H9.41522V13.317H8.73922V12.588ZM8.06222 12.849H8.73822V13.578H8.06222V12.849Z" fill="#FAAE29"/>
<path d="M6.95801 13.042H8.06301V13.943H6.95801V13.042Z" fill="#FAAE29"/>
<path d="M8.54916 24.608H6.49116L5.03516 25.54V26.856L6.49116 27.787H8.54916L10.0052 26.856V25.54L8.54916 24.608Z" fill="white"/>
<path d="M8.38299 15.646H6.65699L5.43599 16.506V17.723L6.65699 18.583H8.38399L9.60499 17.723V16.506L8.38299 15.646ZM9.11899 17.582L8.18199 18.242H6.85799L5.92099 17.582V16.648L6.85799 15.988H8.18199L9.11899 16.648V17.582ZM8.59299 24.542H6.44699L4.92999 25.513V26.884L6.44699 27.854H8.59199L10.109 26.884V25.513L8.59299 24.542ZM9.65199 26.763L8.40199 27.562H6.63699L5.38699 26.763V25.633L6.63699 24.834H8.40299L9.65299 25.633L9.65199 26.763ZM9.75399 21.438V20.995H9.31199V20.502H5.71899V20.995H5.22499V21.438H4.79199V22.084H5.22499V22.563H5.71899V23.084H9.31299V22.563H9.75399V22.084H10.271V21.438H9.75399ZM9.07699 22.812H5.95899V20.728H9.07699V22.812Z" fill="#29AE66"/>
<path d="M7.5 20.25L5.604 21.375V22.104L7.5 23.334L9.416 22.146V21.375L7.5 20.25Z" fill="#29AE66"/>
<path d="M6.65088 25.766L7.49988 25.275L8.34788 25.766V26.745L7.49988 27.234L6.65088 26.745V25.766Z" fill="#CA3745"/>
<path d="M8.34818 30.084L8.10418 30.25C8.10418 30.25 7.89618 29.854 7.33318 29.812C6.77018 29.77 6.45818 30 5.97918 30.031C5.50018 30.062 4.02418 28.945 4.79118 27.234C5.47918 27.729 5.12218 28.333 5.43618 28.625C5.75018 28.917 6.08118 29.115 6.20818 29.459C6.33618 29.803 6.93418 29.518 7.33318 29.584C7.95818 29.688 8.34818 30.084 8.34818 30.084Z" fill="#FAAE29"/>
<path d="M6.65088 30.084L6.89488 30.25C6.89488 30.25 7.10288 29.854 7.66588 29.812C8.22888 29.77 8.54188 30 9.02088 30.031C9.49988 30.062 10.9759 28.945 10.2079 27.234C9.52088 27.729 9.87688 28.333 9.56288 28.625C9.24888 28.917 8.91788 29.115 8.79088 29.459C8.66288 29.803 8.06488 29.518 7.66588 29.584C7.04088 29.688 6.65088 30.084 6.65088 30.084Z" fill="#FAAE29"/>
<path d="M18.1801 8.289C18.5146 8.57525 18.7834 8.93037 18.9681 9.33009C19.1528 9.72981 19.249 10.1647 19.2501 10.605C19.2501 12.305 17.8721 13.683 16.1721 13.683C15.6099 13.6809 15.0593 13.5234 14.5811 13.228C14.8715 13.548 15.2256 13.8038 15.6206 13.9791C16.0156 14.1544 16.4429 14.2453 16.8751 14.246C17.7039 14.246 18.4987 13.9168 19.0848 13.3307C19.6708 12.7447 20.0001 11.9498 20.0001 11.121C20.0001 9.861 19.2521 8.784 18.1801 8.289ZM15.8461 7.867L15.6001 8.35L15.9831 8.734L15.4481 8.649L15.2011 9.132L15.1171 8.597L14.5811 8.512L15.0641 8.266L14.9791 7.729L15.3631 8.113L15.8461 7.867Z" fill="white"/>
<path d="M17.3768 8.79498L17.1308 9.27798L17.5148 9.66198L16.9788 9.57698L16.7318 10.06L16.6478 9.52398L16.1118 9.43898L16.5948 9.19298L16.5108 8.65698L16.8938 9.04098L17.3768 8.79498ZM15.8458 9.45998L15.5998 9.94298L15.9828 10.327L15.4478 10.242L15.2008 10.725L15.1168 10.189L14.5808 10.104L15.0638 9.85798L14.9788 9.32198L15.3628 9.70598L15.8458 9.45998ZM14.2518 10.269L14.0058 10.752L14.3898 11.136L13.8538 11.051L13.6068 11.535L13.5228 10.999L12.9868 10.914L13.4698 10.668L13.3858 10.132L13.7688 10.516L14.2518 10.269ZM15.8458 11.171L15.5998 11.654L15.9828 12.038L15.4478 11.953L15.2008 12.436L15.1168 11.9L14.5808 11.815L15.0638 11.569L14.9788 11.033L15.3628 11.417L15.8458 11.171Z" fill="white"/>
<path d="M7.06201 20.771H7.97701V21.386H7.06201V20.771ZM7.06201 22.172H7.97701V22.787H7.06201V22.172Z" fill="#CA3745"/>
<path d="M5.604 21.484H6.857V22.099H5.604V21.484ZM8.188 21.484H9.416V22.099H8.188V21.484Z" fill="#FAAE29"/>
</svg>
